<mxfile host="app.diagrams.net" modified="2022-05-19T18:10:34.408Z" agent="5.0 (Windows NT 10.0; Win64; x64) AppleWebKit/537.36 (KHTML, like Gecko) Chrome/101.0.0.0 Safari/537.36" etag="tYwCjgLyXB7Iu6vTBsZA" version="18.0.8" type="github">
  <diagram id="R2lEEEUBdFMjLlhIrx00" name="Page-1">
    <mxGraphModel dx="1422" dy="762" grid="1" gridSize="10" guides="1" tooltips="1" connect="1" arrows="1" fold="1" page="1" pageScale="1" pageWidth="850" pageHeight="1100" math="0" shadow="0" extFonts="Permanent Marker^https://fonts.googleapis.com/css?family=Permanent+Marker">
      <root>
        <mxCell id="0" />
        <mxCell id="1" parent="0" />
        <mxCell id="NYHXgKeNbgAAStBe8rO7-9" value="" style="edgeStyle=orthogonalEdgeStyle;rounded=0;orthogonalLoop=1;jettySize=auto;html=1;strokeWidth=1;endArrow=none;endFill=0;" edge="1" parent="1" source="NYHXgKeNbgAAStBe8rO7-1" target="NYHXgKeNbgAAStBe8rO7-7">
          <mxGeometry relative="1" as="geometry" />
        </mxCell>
        <mxCell id="NYHXgKeNbgAAStBe8rO7-11" value="" style="edgeStyle=orthogonalEdgeStyle;rounded=0;orthogonalLoop=1;jettySize=auto;html=1;endArrow=none;endFill=0;strokeWidth=1;" edge="1" parent="1" source="NYHXgKeNbgAAStBe8rO7-1" target="NYHXgKeNbgAAStBe8rO7-10">
          <mxGeometry relative="1" as="geometry" />
        </mxCell>
        <mxCell id="NYHXgKeNbgAAStBe8rO7-21" value="" style="edgeStyle=orthogonalEdgeStyle;rounded=0;orthogonalLoop=1;jettySize=auto;html=1;endArrow=none;endFill=0;strokeWidth=1;" edge="1" parent="1" source="NYHXgKeNbgAAStBe8rO7-1" target="NYHXgKeNbgAAStBe8rO7-20">
          <mxGeometry relative="1" as="geometry" />
        </mxCell>
        <mxCell id="NYHXgKeNbgAAStBe8rO7-1" value="OSNOVNA ŠKOLA" style="rounded=0;whiteSpace=wrap;html=1;" vertex="1" parent="1">
          <mxGeometry x="210" y="130" width="120" height="60" as="geometry" />
        </mxCell>
        <mxCell id="NYHXgKeNbgAAStBe8rO7-2" value="OIB_ŠKOLE" style="ellipse;whiteSpace=wrap;html=1;" vertex="1" parent="1">
          <mxGeometry x="210" y="20" width="120" height="80" as="geometry" />
        </mxCell>
        <mxCell id="NYHXgKeNbgAAStBe8rO7-6" value="" style="endArrow=none;html=1;rounded=0;exitX=0.5;exitY=0;exitDx=0;exitDy=0;" edge="1" parent="1" source="NYHXgKeNbgAAStBe8rO7-1" target="NYHXgKeNbgAAStBe8rO7-2">
          <mxGeometry width="50" height="50" relative="1" as="geometry">
            <mxPoint x="350" y="310" as="sourcePoint" />
            <mxPoint x="400" y="260" as="targetPoint" />
          </mxGeometry>
        </mxCell>
        <mxCell id="NYHXgKeNbgAAStBe8rO7-7" value="NAZIV" style="ellipse;whiteSpace=wrap;html=1;" vertex="1" parent="1">
          <mxGeometry x="40" y="120" width="120" height="80" as="geometry" />
        </mxCell>
        <mxCell id="NYHXgKeNbgAAStBe8rO7-15" value="" style="edgeStyle=orthogonalEdgeStyle;rounded=0;orthogonalLoop=1;jettySize=auto;html=1;endArrow=none;endFill=0;strokeWidth=1;" edge="1" parent="1" source="NYHXgKeNbgAAStBe8rO7-10" target="NYHXgKeNbgAAStBe8rO7-12">
          <mxGeometry relative="1" as="geometry" />
        </mxCell>
        <mxCell id="NYHXgKeNbgAAStBe8rO7-10" value="IMA" style="rhombus;whiteSpace=wrap;html=1;" vertex="1" parent="1">
          <mxGeometry x="380" y="120" width="80" height="80" as="geometry" />
        </mxCell>
        <mxCell id="NYHXgKeNbgAAStBe8rO7-16" value="" style="edgeStyle=orthogonalEdgeStyle;rounded=0;orthogonalLoop=1;jettySize=auto;html=1;endArrow=none;endFill=0;strokeWidth=1;" edge="1" parent="1" source="NYHXgKeNbgAAStBe8rO7-12" target="NYHXgKeNbgAAStBe8rO7-13">
          <mxGeometry relative="1" as="geometry" />
        </mxCell>
        <mxCell id="NYHXgKeNbgAAStBe8rO7-17" style="edgeStyle=orthogonalEdgeStyle;rounded=0;orthogonalLoop=1;jettySize=auto;html=1;endArrow=none;endFill=0;strokeWidth=1;" edge="1" parent="1" source="NYHXgKeNbgAAStBe8rO7-12" target="NYHXgKeNbgAAStBe8rO7-14">
          <mxGeometry relative="1" as="geometry">
            <Array as="points">
              <mxPoint x="690" y="140" />
            </Array>
          </mxGeometry>
        </mxCell>
        <mxCell id="NYHXgKeNbgAAStBe8rO7-54" value="" style="edgeStyle=orthogonalEdgeStyle;rounded=0;orthogonalLoop=1;jettySize=auto;html=1;endArrow=none;endFill=0;strokeWidth=1;" edge="1" parent="1" source="NYHXgKeNbgAAStBe8rO7-12" target="NYHXgKeNbgAAStBe8rO7-51">
          <mxGeometry relative="1" as="geometry" />
        </mxCell>
        <mxCell id="NYHXgKeNbgAAStBe8rO7-12" value="RAZRED" style="rounded=0;whiteSpace=wrap;html=1;" vertex="1" parent="1">
          <mxGeometry x="500" y="130" width="120" height="60" as="geometry" />
        </mxCell>
        <mxCell id="NYHXgKeNbgAAStBe8rO7-13" value="ŠIFRA_RAZREDA" style="ellipse;whiteSpace=wrap;html=1;" vertex="1" parent="1">
          <mxGeometry x="510" y="20" width="120" height="80" as="geometry" />
        </mxCell>
        <mxCell id="NYHXgKeNbgAAStBe8rO7-14" value="NAZIV" style="ellipse;whiteSpace=wrap;html=1;" vertex="1" parent="1">
          <mxGeometry x="670" y="20" width="120" height="80" as="geometry" />
        </mxCell>
        <mxCell id="NYHXgKeNbgAAStBe8rO7-18" value="N" style="text;html=1;align=center;verticalAlign=middle;resizable=0;points=[];autosize=1;strokeColor=none;fillColor=none;" vertex="1" parent="1">
          <mxGeometry x="470" y="170" width="20" height="20" as="geometry" />
        </mxCell>
        <mxCell id="NYHXgKeNbgAAStBe8rO7-19" value="1" style="text;html=1;align=center;verticalAlign=middle;resizable=0;points=[];autosize=1;strokeColor=none;fillColor=none;" vertex="1" parent="1">
          <mxGeometry x="330" y="170" width="20" height="20" as="geometry" />
        </mxCell>
        <mxCell id="NYHXgKeNbgAAStBe8rO7-26" value="" style="edgeStyle=orthogonalEdgeStyle;rounded=0;orthogonalLoop=1;jettySize=auto;html=1;endArrow=none;endFill=0;strokeWidth=1;" edge="1" parent="1" source="NYHXgKeNbgAAStBe8rO7-20" target="NYHXgKeNbgAAStBe8rO7-23">
          <mxGeometry relative="1" as="geometry" />
        </mxCell>
        <mxCell id="NYHXgKeNbgAAStBe8rO7-20" value="NALAZI SE" style="rhombus;whiteSpace=wrap;html=1;" vertex="1" parent="1">
          <mxGeometry x="230" y="220" width="80" height="80" as="geometry" />
        </mxCell>
        <mxCell id="NYHXgKeNbgAAStBe8rO7-22" value="N" style="text;html=1;align=center;verticalAlign=middle;resizable=0;points=[];autosize=1;strokeColor=none;fillColor=none;" vertex="1" parent="1">
          <mxGeometry x="270" y="190" width="20" height="20" as="geometry" />
        </mxCell>
        <mxCell id="NYHXgKeNbgAAStBe8rO7-27" value="" style="edgeStyle=orthogonalEdgeStyle;rounded=0;orthogonalLoop=1;jettySize=auto;html=1;endArrow=none;endFill=0;strokeWidth=1;" edge="1" parent="1" source="NYHXgKeNbgAAStBe8rO7-23" target="NYHXgKeNbgAAStBe8rO7-25">
          <mxGeometry relative="1" as="geometry" />
        </mxCell>
        <mxCell id="NYHXgKeNbgAAStBe8rO7-31" style="edgeStyle=orthogonalEdgeStyle;rounded=0;orthogonalLoop=1;jettySize=auto;html=1;endArrow=none;endFill=0;strokeWidth=1;" edge="1" parent="1" source="NYHXgKeNbgAAStBe8rO7-23" target="NYHXgKeNbgAAStBe8rO7-29">
          <mxGeometry relative="1" as="geometry">
            <Array as="points">
              <mxPoint x="185" y="350" />
              <mxPoint x="185" y="320" />
            </Array>
          </mxGeometry>
        </mxCell>
        <mxCell id="NYHXgKeNbgAAStBe8rO7-32" style="edgeStyle=orthogonalEdgeStyle;rounded=0;orthogonalLoop=1;jettySize=auto;html=1;endArrow=none;endFill=0;strokeWidth=1;" edge="1" parent="1" source="NYHXgKeNbgAAStBe8rO7-23" target="NYHXgKeNbgAAStBe8rO7-30">
          <mxGeometry relative="1" as="geometry">
            <Array as="points">
              <mxPoint x="185" y="380" />
              <mxPoint x="185" y="440" />
            </Array>
          </mxGeometry>
        </mxCell>
        <mxCell id="NYHXgKeNbgAAStBe8rO7-23" value="MJESTO" style="rounded=0;whiteSpace=wrap;html=1;" vertex="1" parent="1">
          <mxGeometry x="210" y="340" width="120" height="60" as="geometry" />
        </mxCell>
        <mxCell id="NYHXgKeNbgAAStBe8rO7-35" value="" style="edgeStyle=orthogonalEdgeStyle;rounded=0;orthogonalLoop=1;jettySize=auto;html=1;endArrow=none;endFill=0;strokeWidth=1;" edge="1" parent="1" source="NYHXgKeNbgAAStBe8rO7-25" target="NYHXgKeNbgAAStBe8rO7-34">
          <mxGeometry relative="1" as="geometry" />
        </mxCell>
        <mxCell id="NYHXgKeNbgAAStBe8rO7-25" value="NALAZI SE" style="rhombus;whiteSpace=wrap;html=1;" vertex="1" parent="1">
          <mxGeometry x="230" y="440" width="80" height="80" as="geometry" />
        </mxCell>
        <mxCell id="NYHXgKeNbgAAStBe8rO7-28" value="1" style="text;html=1;align=center;verticalAlign=middle;resizable=0;points=[];autosize=1;strokeColor=none;fillColor=none;" vertex="1" parent="1">
          <mxGeometry x="270" y="320" width="20" height="20" as="geometry" />
        </mxCell>
        <mxCell id="NYHXgKeNbgAAStBe8rO7-29" value="NAZIV" style="ellipse;whiteSpace=wrap;html=1;" vertex="1" parent="1">
          <mxGeometry x="40" y="280" width="120" height="80" as="geometry" />
        </mxCell>
        <mxCell id="NYHXgKeNbgAAStBe8rO7-30" value="ŠIFRA_MJESTA" style="ellipse;whiteSpace=wrap;html=1;" vertex="1" parent="1">
          <mxGeometry x="40" y="400" width="120" height="80" as="geometry" />
        </mxCell>
        <mxCell id="NYHXgKeNbgAAStBe8rO7-33" value="N" style="text;html=1;align=center;verticalAlign=middle;resizable=0;points=[];autosize=1;strokeColor=none;fillColor=none;" vertex="1" parent="1">
          <mxGeometry x="270" y="400" width="20" height="20" as="geometry" />
        </mxCell>
        <mxCell id="NYHXgKeNbgAAStBe8rO7-39" value="" style="edgeStyle=orthogonalEdgeStyle;rounded=0;orthogonalLoop=1;jettySize=auto;html=1;endArrow=none;endFill=0;strokeWidth=1;" edge="1" parent="1" source="NYHXgKeNbgAAStBe8rO7-34" target="NYHXgKeNbgAAStBe8rO7-38">
          <mxGeometry relative="1" as="geometry" />
        </mxCell>
        <mxCell id="NYHXgKeNbgAAStBe8rO7-40" value="" style="edgeStyle=orthogonalEdgeStyle;rounded=0;orthogonalLoop=1;jettySize=auto;html=1;endArrow=none;endFill=0;strokeWidth=1;" edge="1" parent="1" source="NYHXgKeNbgAAStBe8rO7-34" target="NYHXgKeNbgAAStBe8rO7-37">
          <mxGeometry relative="1" as="geometry" />
        </mxCell>
        <mxCell id="NYHXgKeNbgAAStBe8rO7-42" value="" style="edgeStyle=orthogonalEdgeStyle;rounded=0;orthogonalLoop=1;jettySize=auto;html=1;endArrow=none;endFill=0;strokeWidth=1;" edge="1" parent="1" source="NYHXgKeNbgAAStBe8rO7-34" target="NYHXgKeNbgAAStBe8rO7-41">
          <mxGeometry relative="1" as="geometry" />
        </mxCell>
        <mxCell id="NYHXgKeNbgAAStBe8rO7-34" value="OPĆINA" style="rounded=0;whiteSpace=wrap;html=1;" vertex="1" parent="1">
          <mxGeometry x="210" y="560" width="120" height="60" as="geometry" />
        </mxCell>
        <mxCell id="NYHXgKeNbgAAStBe8rO7-36" value="1" style="text;html=1;align=center;verticalAlign=middle;resizable=0;points=[];autosize=1;strokeColor=none;fillColor=none;" vertex="1" parent="1">
          <mxGeometry x="270" y="540" width="20" height="20" as="geometry" />
        </mxCell>
        <mxCell id="NYHXgKeNbgAAStBe8rO7-37" value="NAZIV" style="ellipse;whiteSpace=wrap;html=1;" vertex="1" parent="1">
          <mxGeometry x="30" y="550" width="120" height="80" as="geometry" />
        </mxCell>
        <mxCell id="NYHXgKeNbgAAStBe8rO7-38" value="ŠIFRA_OPĆINE" style="ellipse;whiteSpace=wrap;html=1;" vertex="1" parent="1">
          <mxGeometry x="210" y="670" width="120" height="80" as="geometry" />
        </mxCell>
        <mxCell id="NYHXgKeNbgAAStBe8rO7-47" value="" style="edgeStyle=orthogonalEdgeStyle;rounded=0;orthogonalLoop=1;jettySize=auto;html=1;endArrow=none;endFill=0;strokeWidth=1;" edge="1" parent="1" source="NYHXgKeNbgAAStBe8rO7-41" target="NYHXgKeNbgAAStBe8rO7-44">
          <mxGeometry relative="1" as="geometry" />
        </mxCell>
        <mxCell id="NYHXgKeNbgAAStBe8rO7-41" value="NALAZI SE" style="rhombus;whiteSpace=wrap;html=1;" vertex="1" parent="1">
          <mxGeometry x="400" y="550" width="80" height="80" as="geometry" />
        </mxCell>
        <mxCell id="NYHXgKeNbgAAStBe8rO7-43" value="N" style="text;html=1;align=center;verticalAlign=middle;resizable=0;points=[];autosize=1;strokeColor=none;fillColor=none;" vertex="1" parent="1">
          <mxGeometry x="330" y="600" width="20" height="20" as="geometry" />
        </mxCell>
        <mxCell id="NYHXgKeNbgAAStBe8rO7-46" value="" style="edgeStyle=orthogonalEdgeStyle;rounded=0;orthogonalLoop=1;jettySize=auto;html=1;endArrow=none;endFill=0;strokeWidth=1;" edge="1" parent="1" source="NYHXgKeNbgAAStBe8rO7-44" target="NYHXgKeNbgAAStBe8rO7-45">
          <mxGeometry relative="1" as="geometry" />
        </mxCell>
        <mxCell id="NYHXgKeNbgAAStBe8rO7-50" value="" style="edgeStyle=orthogonalEdgeStyle;rounded=0;orthogonalLoop=1;jettySize=auto;html=1;endArrow=none;endFill=0;strokeWidth=1;" edge="1" parent="1" source="NYHXgKeNbgAAStBe8rO7-44" target="NYHXgKeNbgAAStBe8rO7-49">
          <mxGeometry relative="1" as="geometry" />
        </mxCell>
        <mxCell id="NYHXgKeNbgAAStBe8rO7-44" value="ŽUPANIJA" style="rounded=0;whiteSpace=wrap;html=1;" vertex="1" parent="1">
          <mxGeometry x="540" y="560" width="120" height="60" as="geometry" />
        </mxCell>
        <mxCell id="NYHXgKeNbgAAStBe8rO7-45" value="ŠIFRA_ŽUPANIJE" style="ellipse;whiteSpace=wrap;html=1;" vertex="1" parent="1">
          <mxGeometry x="540" y="680" width="120" height="80" as="geometry" />
        </mxCell>
        <mxCell id="NYHXgKeNbgAAStBe8rO7-48" value="1" style="text;html=1;align=center;verticalAlign=middle;resizable=0;points=[];autosize=1;strokeColor=none;fillColor=none;" vertex="1" parent="1">
          <mxGeometry x="520" y="590" width="20" height="20" as="geometry" />
        </mxCell>
        <mxCell id="NYHXgKeNbgAAStBe8rO7-49" value="NAZIV" style="ellipse;whiteSpace=wrap;html=1;" vertex="1" parent="1">
          <mxGeometry x="720" y="550" width="120" height="80" as="geometry" />
        </mxCell>
        <mxCell id="NYHXgKeNbgAAStBe8rO7-51" value="OCJENA PREDMETA" style="rhombus;whiteSpace=wrap;html=1;" vertex="1" parent="1">
          <mxGeometry x="520" y="230" width="80" height="80" as="geometry" />
        </mxCell>
        <mxCell id="NYHXgKeNbgAAStBe8rO7-55" value="N" style="text;html=1;align=center;verticalAlign=middle;resizable=0;points=[];autosize=1;strokeColor=none;fillColor=none;" vertex="1" parent="1">
          <mxGeometry x="530" y="190" width="20" height="20" as="geometry" />
        </mxCell>
        <mxCell id="NYHXgKeNbgAAStBe8rO7-58" value="" style="edgeStyle=orthogonalEdgeStyle;rounded=0;orthogonalLoop=1;jettySize=auto;html=1;endArrow=none;endFill=0;strokeWidth=1;" edge="1" parent="1" source="NYHXgKeNbgAAStBe8rO7-56" target="NYHXgKeNbgAAStBe8rO7-57">
          <mxGeometry relative="1" as="geometry" />
        </mxCell>
        <mxCell id="NYHXgKeNbgAAStBe8rO7-60" value="" style="edgeStyle=orthogonalEdgeStyle;rounded=0;orthogonalLoop=1;jettySize=auto;html=1;endArrow=none;endFill=0;strokeWidth=1;" edge="1" parent="1" source="NYHXgKeNbgAAStBe8rO7-56" target="NYHXgKeNbgAAStBe8rO7-59">
          <mxGeometry relative="1" as="geometry" />
        </mxCell>
        <mxCell id="NYHXgKeNbgAAStBe8rO7-61" value="" style="edgeStyle=orthogonalEdgeStyle;rounded=0;orthogonalLoop=1;jettySize=auto;html=1;endArrow=none;endFill=0;strokeWidth=1;" edge="1" parent="1" source="NYHXgKeNbgAAStBe8rO7-56" target="NYHXgKeNbgAAStBe8rO7-51">
          <mxGeometry relative="1" as="geometry" />
        </mxCell>
        <mxCell id="NYHXgKeNbgAAStBe8rO7-62" value="" style="edgeStyle=orthogonalEdgeStyle;rounded=0;orthogonalLoop=1;jettySize=auto;html=1;endArrow=none;endFill=0;strokeWidth=1;" edge="1" parent="1" source="NYHXgKeNbgAAStBe8rO7-56" target="NYHXgKeNbgAAStBe8rO7-51">
          <mxGeometry relative="1" as="geometry" />
        </mxCell>
        <mxCell id="NYHXgKeNbgAAStBe8rO7-56" value="PREDMET" style="rounded=0;whiteSpace=wrap;html=1;" vertex="1" parent="1">
          <mxGeometry x="670" y="240" width="120" height="60" as="geometry" />
        </mxCell>
        <mxCell id="NYHXgKeNbgAAStBe8rO7-57" value="ŠIFRA_PREDMETA" style="ellipse;whiteSpace=wrap;html=1;" vertex="1" parent="1">
          <mxGeometry x="710" y="130" width="120" height="80" as="geometry" />
        </mxCell>
        <mxCell id="NYHXgKeNbgAAStBe8rO7-59" value="NAZIV" style="ellipse;whiteSpace=wrap;html=1;" vertex="1" parent="1">
          <mxGeometry x="670" y="330" width="120" height="80" as="geometry" />
        </mxCell>
        <mxCell id="NYHXgKeNbgAAStBe8rO7-63" value="N" style="text;html=1;align=center;verticalAlign=middle;resizable=0;points=[];autosize=1;strokeColor=none;fillColor=none;" vertex="1" parent="1">
          <mxGeometry x="640" y="270" width="20" height="20" as="geometry" />
        </mxCell>
        <mxCell id="NYHXgKeNbgAAStBe8rO7-65" value="" style="edgeStyle=orthogonalEdgeStyle;rounded=0;orthogonalLoop=1;jettySize=auto;html=1;endArrow=none;endFill=0;strokeWidth=1;" edge="1" parent="1" source="NYHXgKeNbgAAStBe8rO7-64" target="NYHXgKeNbgAAStBe8rO7-51">
          <mxGeometry relative="1" as="geometry" />
        </mxCell>
        <mxCell id="NYHXgKeNbgAAStBe8rO7-64" value="ZAVRŠNA OCJENA" style="ellipse;whiteSpace=wrap;html=1;" vertex="1" parent="1">
          <mxGeometry x="360" y="230" width="120" height="80" as="geometry" />
        </mxCell>
        <mxCell id="NYHXgKeNbgAAStBe8rO7-68" style="edgeStyle=orthogonalEdgeStyle;rounded=0;orthogonalLoop=1;jettySize=auto;html=1;endArrow=none;endFill=0;strokeWidth=1;" edge="1" parent="1" source="NYHXgKeNbgAAStBe8rO7-66" target="NYHXgKeNbgAAStBe8rO7-67">
          <mxGeometry relative="1" as="geometry" />
        </mxCell>
        <mxCell id="NYHXgKeNbgAAStBe8rO7-70" value="" style="edgeStyle=orthogonalEdgeStyle;rounded=0;orthogonalLoop=1;jettySize=auto;html=1;endArrow=none;endFill=0;strokeWidth=1;" edge="1" parent="1" source="NYHXgKeNbgAAStBe8rO7-66" target="NYHXgKeNbgAAStBe8rO7-69">
          <mxGeometry relative="1" as="geometry" />
        </mxCell>
        <mxCell id="NYHXgKeNbgAAStBe8rO7-78" value="" style="edgeStyle=orthogonalEdgeStyle;rounded=0;orthogonalLoop=1;jettySize=auto;html=1;endArrow=none;endFill=0;strokeWidth=1;" edge="1" parent="1" source="NYHXgKeNbgAAStBe8rO7-66" target="NYHXgKeNbgAAStBe8rO7-51">
          <mxGeometry relative="1" as="geometry" />
        </mxCell>
        <mxCell id="NYHXgKeNbgAAStBe8rO7-66" value="UČENIK" style="rounded=0;whiteSpace=wrap;html=1;" vertex="1" parent="1">
          <mxGeometry x="500" y="370" width="120" height="60" as="geometry" />
        </mxCell>
        <mxCell id="NYHXgKeNbgAAStBe8rO7-67" value="PREZIME" style="ellipse;whiteSpace=wrap;html=1;" vertex="1" parent="1">
          <mxGeometry x="680" y="420" width="120" height="80" as="geometry" />
        </mxCell>
        <mxCell id="NYHXgKeNbgAAStBe8rO7-69" value="OIB" style="ellipse;whiteSpace=wrap;html=1;" vertex="1" parent="1">
          <mxGeometry x="510" y="460" width="120" height="80" as="geometry" />
        </mxCell>
        <mxCell id="NYHXgKeNbgAAStBe8rO7-72" style="edgeStyle=orthogonalEdgeStyle;rounded=0;orthogonalLoop=1;jettySize=auto;html=1;entryX=0.183;entryY=1.017;entryDx=0;entryDy=0;entryPerimeter=0;endArrow=none;endFill=0;strokeWidth=1;" edge="1" parent="1" source="NYHXgKeNbgAAStBe8rO7-71" target="NYHXgKeNbgAAStBe8rO7-66">
          <mxGeometry relative="1" as="geometry">
            <Array as="points">
              <mxPoint x="510" y="470" />
              <mxPoint x="510" y="431" />
            </Array>
          </mxGeometry>
        </mxCell>
        <mxCell id="NYHXgKeNbgAAStBe8rO7-71" value="IME" style="ellipse;whiteSpace=wrap;html=1;" vertex="1" parent="1">
          <mxGeometry x="350" y="430" width="120" height="80" as="geometry" />
        </mxCell>
        <mxCell id="NYHXgKeNbgAAStBe8rO7-74" value="" style="edgeStyle=orthogonalEdgeStyle;rounded=0;orthogonalLoop=1;jettySize=auto;html=1;endArrow=none;endFill=0;strokeWidth=1;" edge="1" parent="1" source="NYHXgKeNbgAAStBe8rO7-73" target="NYHXgKeNbgAAStBe8rO7-23">
          <mxGeometry relative="1" as="geometry" />
        </mxCell>
        <mxCell id="NYHXgKeNbgAAStBe8rO7-76" style="edgeStyle=orthogonalEdgeStyle;rounded=0;orthogonalLoop=1;jettySize=auto;html=1;entryX=0;entryY=0.25;entryDx=0;entryDy=0;endArrow=none;endFill=0;strokeWidth=1;" edge="1" parent="1" source="NYHXgKeNbgAAStBe8rO7-73" target="NYHXgKeNbgAAStBe8rO7-66">
          <mxGeometry relative="1" as="geometry" />
        </mxCell>
        <mxCell id="NYHXgKeNbgAAStBe8rO7-73" value="PREBIVALIŠTE" style="rhombus;whiteSpace=wrap;html=1;" vertex="1" parent="1">
          <mxGeometry x="380" y="320" width="80" height="80" as="geometry" />
        </mxCell>
        <mxCell id="NYHXgKeNbgAAStBe8rO7-75" value="1" style="text;html=1;align=center;verticalAlign=middle;resizable=0;points=[];autosize=1;strokeColor=none;fillColor=none;" vertex="1" parent="1">
          <mxGeometry x="330" y="380" width="20" height="20" as="geometry" />
        </mxCell>
        <mxCell id="NYHXgKeNbgAAStBe8rO7-77" value="N" style="text;html=1;align=center;verticalAlign=middle;resizable=0;points=[];autosize=1;strokeColor=none;fillColor=none;" vertex="1" parent="1">
          <mxGeometry x="480" y="390" width="20" height="20" as="geometry" />
        </mxCell>
        <mxCell id="NYHXgKeNbgAAStBe8rO7-79" value="N" style="text;html=1;align=center;verticalAlign=middle;resizable=0;points=[];autosize=1;strokeColor=none;fillColor=none;" vertex="1" parent="1">
          <mxGeometry x="530" y="350" width="20" height="20" as="geometry" />
        </mxCell>
      </root>
    </mxGraphModel>
  </diagram>
</mxfile>
